<mxfile host="65bd71144e">
    <diagram id="Gyaql2XVrTqRh0GSEIQU" name="Page-1">
        <mxGraphModel dx="327" dy="926" grid="1" gridSize="10" guides="1" tooltips="1" connect="1" arrows="1" fold="1" page="1" pageScale="1" pageWidth="850" pageHeight="1100" background="#ffffff" math="0" shadow="0">
            <root>
                <mxCell id="0"/>
                <mxCell id="1" parent="0"/>
                <mxCell id="60" value="&lt;span style=&quot;&quot;&gt;SSO Security Realm&lt;/span&gt;" style="rounded=0;whiteSpace=wrap;html=1;verticalAlign=bottom;fontStyle=1;" parent="1" vertex="1">
                    <mxGeometry x="20" y="20" width="670" height="440" as="geometry"/>
                </mxCell>
                <mxCell id="85" value="Validates User&lt;br&gt;Credentials" style="edgeStyle=none;html=1;entryX=0;entryY=0.5;entryDx=0;entryDy=0;labelBackgroundColor=none;" edge="1" parent="1" source="66" target="83">
                    <mxGeometry x="-0.1382" y="16" relative="1" as="geometry">
                        <mxPoint y="1" as="offset"/>
                    </mxGeometry>
                </mxCell>
                <mxCell id="104" style="edgeStyle=none;html=1;labelBackgroundColor=none;fontColor=#FFFFFF;" edge="1" parent="1" source="66" target="69">
                    <mxGeometry relative="1" as="geometry">
                        <Array as="points">
                            <mxPoint x="260" y="350"/>
                        </Array>
                    </mxGeometry>
                </mxCell>
                <mxCell id="106" value="Confirms User&lt;br&gt;Identity" style="edgeLabel;html=1;align=center;verticalAlign=middle;resizable=0;points=[];fontColor=#000000;labelBackgroundColor=none;" vertex="1" connectable="0" parent="104">
                    <mxGeometry x="-0.3259" relative="1" as="geometry">
                        <mxPoint x="-40" y="73" as="offset"/>
                    </mxGeometry>
                </mxCell>
                <mxCell id="108" value="Prompts User&lt;br&gt;for Credentials" style="edgeStyle=none;html=1;entryX=0.87;entryY=0.65;entryDx=0;entryDy=0;entryPerimeter=0;labelBackgroundColor=none;fontColor=#000000;" edge="1" parent="1" source="66" target="75">
                    <mxGeometry x="-0.3874" y="-33" relative="1" as="geometry">
                        <mxPoint as="offset"/>
                    </mxGeometry>
                </mxCell>
                <mxCell id="74" value="Asks Keycloak to &lt;br&gt;Authenticate User" style="edgeStyle=none;html=1;labelBackgroundColor=none;" edge="1" parent="1" source="69" target="66">
                    <mxGeometry x="0.0345" y="15" relative="1" as="geometry">
                        <mxPoint as="offset"/>
                    </mxGeometry>
                </mxCell>
                <mxCell id="77" value="Attempts to&lt;br&gt;Access Vault" style="edgeStyle=none;html=1;labelBackgroundColor=none;exitX=0.14;exitY=0.65;exitDx=0;exitDy=0;exitPerimeter=0;" edge="1" parent="1" source="75" target="69">
                    <mxGeometry x="0.3095" y="-30" relative="1" as="geometry">
                        <mxPoint as="offset"/>
                    </mxGeometry>
                </mxCell>
                <mxCell id="75" value="&quot;I am an&lt;br&gt;Admin&quot;" style="sketch=0;aspect=fixed;pointerEvents=1;shadow=0;dashed=0;html=1;strokeColor=none;labelPosition=center;verticalLabelPosition=bottom;verticalAlign=top;align=center;fillColor=#00188D;shape=mxgraph.azure.user;labelBackgroundColor=none;opacity=70;" vertex="1" parent="1">
                    <mxGeometry x="250" y="49.36" width="28.8" height="30.64" as="geometry"/>
                </mxCell>
                <mxCell id="83" value="User Database" style="aspect=fixed;perimeter=ellipsePerimeter;html=1;align=center;shadow=0;dashed=0;spacingTop=3;image;image=img/lib/active_directory/database_server.svg;labelBackgroundColor=none;opacity=70;fontStyle=1" vertex="1" parent="1">
                    <mxGeometry x="600" y="180.5" width="41" height="50" as="geometry"/>
                </mxCell>
                <mxCell id="90" value="1" style="ellipse;whiteSpace=wrap;html=1;aspect=fixed;labelBackgroundColor=none;opacity=70;fillColor=#213FFF;fontColor=#FFFFFF;fontStyle=1" vertex="1" parent="1">
                    <mxGeometry x="140" y="90" width="20" height="20" as="geometry"/>
                </mxCell>
                <mxCell id="91" value="2" style="ellipse;whiteSpace=wrap;html=1;aspect=fixed;labelBackgroundColor=none;opacity=70;fillColor=#213FFF;fontColor=#FFFFFF;fontStyle=1" vertex="1" parent="1">
                    <mxGeometry x="250" y="210.5" width="20" height="20" as="geometry"/>
                </mxCell>
                <mxCell id="92" value="3" style="ellipse;whiteSpace=wrap;html=1;aspect=fixed;labelBackgroundColor=none;opacity=70;fillColor=#213FFF;fontColor=#FFFFFF;fontStyle=1" vertex="1" parent="1">
                    <mxGeometry x="370" y="90" width="20" height="20" as="geometry"/>
                </mxCell>
                <mxCell id="93" value="4" style="ellipse;whiteSpace=wrap;html=1;aspect=fixed;labelBackgroundColor=none;opacity=70;fillColor=#213FFF;fontColor=#FFFFFF;fontStyle=1" vertex="1" parent="1">
                    <mxGeometry x="500" y="210.5" width="20" height="20" as="geometry"/>
                </mxCell>
                <mxCell id="105" value="5" style="ellipse;whiteSpace=wrap;html=1;aspect=fixed;labelBackgroundColor=none;opacity=70;fillColor=#213FFF;fontColor=#FFFFFF;fontStyle=1" vertex="1" parent="1">
                    <mxGeometry x="250" y="350" width="20" height="20" as="geometry"/>
                </mxCell>
                <mxCell id="109" value="Main" parent="0"/>
                <mxCell id="69" value="Vault&#10;Secret&#10;Management" style="shape=image;verticalLabelPosition=bottom;labelBackgroundColor=none;verticalAlign=top;aspect=fixed;imageAspect=0;image=https://cdn.worldvectorlogo.com/logos/vault-enterprise.svg;fontStyle=1" vertex="1" parent="109">
                    <mxGeometry x="90" y="190" width="30.65" height="30" as="geometry"/>
                </mxCell>
                <mxCell id="66" value="Keycloak&#10;Identy and Access&#10;Management" style="shape=image;verticalLabelPosition=bottom;labelBackgroundColor=none;verticalAlign=top;aspect=fixed;imageAspect=0;image=https://www.keycloak.org/resources/images/icon.svg;imageBackground=none;fontStyle=1" vertex="1" parent="109">
                    <mxGeometry x="390" y="190" width="34.28" height="31" as="geometry"/>
                </mxCell>
            </root>
        </mxGraphModel>
    </diagram>
</mxfile>
